{
	"asset":{
		"generator":"Khronos glTF Blender I/O v4.0.44",
		"version":"2.0"
	},
	"scene":0,
	"scenes":[
		{
			"name":"Scene",
			"nodes":[
				21
			]
		}
	],
	"nodes":[
		{
			"mesh":0,
			"name":"Node13"
		},
		{
			"mesh":1,
			"name":"Node14"
		},
		{
			"mesh":2,
			"name":"Node15"
		},
		{
			"mesh":3,
			"name":"Node17"
		},
		{
			"mesh":4,
			"name":"Node18"
		},
		{
			"mesh":5,
			"name":"Node2"
		},
		{
			"mesh":6,
			"name":"Node20"
		},
		{
			"mesh":7,
			"name":"Node29"
		},
		{
			"mesh":8,
			"name":"Node30"
		},
		{
			"mesh":9,
			"name":"Node31"
		},
		{
			"mesh":10,
			"name":"Node32"
		},
		{
			"mesh":11,
			"name":"Node33"
		},
		{
			"mesh":12,
			"name":"Node34"
		},
		{
			"mesh":13,
			"name":"Node35"
		},
		{
			"mesh":14,
			"name":"Node36"
		},
		{
			"mesh":15,
			"name":"Node37"
		},
		{
			"mesh":16,
			"name":"Node38"
		},
		{
			"mesh":17,
			"name":"Node5"
		},
		{
			"mesh":18,
			"name":"Node6"
		},
		{
			"mesh":19,
			"name":"Node8"
		},
		{
			"children":[
				0,
				1,
				2,
				3,
				4,
				5,
				6,
				7,
				8,
				9,
				10,
				11,
				12,
				13,
				14,
				15,
				16,
				17,
				18,
				19
			],
			"mesh":20,
			"name":"Node1"
		},
		{
			"children":[
				20
			],
			"name":"Node0"
		}
	],
	"materials":[
		{
			"doubleSided":true,
			"name":"#7D7D7DFF",
			"pbrMetallicRoughness":{
				"baseColorFactor":[
					0.4901960790157318,
					0.4901960790157318,
					0.4901960790157318,
					1
				],
				"metallicFactor":0.05000000074505806,
				"roughnessFactor":0.5
			}
		},
		{
			"doubleSided":true,
			"name":"#DDDAC9FF",
			"pbrMetallicRoughness":{
				"baseColorFactor":[
					0.8666666746139526,
					0.8549019694328308,
					0.7882353067398071,
					1
				],
				"metallicFactor":0.05000000074505806,
				"roughnessFactor":0.5
			}
		},
		{
			"doubleSided":true,
			"name":"#FF0000FF",
			"pbrMetallicRoughness":{
				"baseColorFactor":[
					1,
					0,
					0,
					1
				],
				"metallicFactor":0.05000000074505806,
				"roughnessFactor":0.5
			}
		},
		{
			"doubleSided":true,
			"name":"#FF9900FF",
			"pbrMetallicRoughness":{
				"baseColorFactor":[
					1,
					0.6000000238418579,
					0,
					1
				],
				"metallicFactor":0.05000000074505806,
				"roughnessFactor":0.5
			}
		},
		{
			"doubleSided":true,
			"name":"#CCCCCCFF",
			"pbrMetallicRoughness":{
				"baseColorFactor":[
					0.800000011920929,
					0.800000011920929,
					0.800000011920929,
					1
				],
				"metallicFactor":0.05000000074505806,
				"roughnessFactor":0.5
			}
		},
		{
			"doubleSided":true,
			"name":"#4B4B4BFF",
			"pbrMetallicRoughness":{
				"baseColorFactor":[
					0.29411765933036804,
					0.29411765933036804,
					0.29411765933036804,
					1
				],
				"metallicFactor":0.05000000074505806,
				"roughnessFactor":0.5
			}
		},
		{
			"doubleSided":true,
			"name":"#DCEEECFF",
			"pbrMetallicRoughness":{
				"baseColorFactor":[
					0.8627451062202454,
					0.9333333373069763,
					0.9254902005195618,
					1
				],
				"metallicFactor":0.05000000074505806,
				"roughnessFactor":0.5
			}
		},
		{
			"doubleSided":true,
			"name":"#00FF00FF",
			"pbrMetallicRoughness":{
				"baseColorFactor":[
					0,
					1,
					0,
					1
				],
				"metallicFactor":0.05000000074505806,
				"roughnessFactor":0.5
			}
		},
		{
			"doubleSided":true,
			"name":"#FF5050FF",
			"pbrMetallicRoughness":{
				"baseColorFactor":[
					1,
					0.3137255012989044,
					0.3137255012989044,
					1
				],
				"metallicFactor":0.05000000074505806,
				"roughnessFactor":0.5
			}
		},
		{
			"doubleSided":true,
			"name":"#282321FF",
			"pbrMetallicRoughness":{
				"baseColorFactor":[
					0.1568627506494522,
					0.13725490868091583,
					0.12941177189350128,
					1
				],
				"metallicFactor":0.05000000074505806,
				"roughnessFactor":0.5
			}
		},
		{
			"doubleSided":true,
			"name":"#D7FFC6FF",
			"pbrMetallicRoughness":{
				"baseColorFactor":[
					0.843137264251709,
					1,
					0.7764706015586853,
					1
				],
				"metallicFactor":0.05000000074505806,
				"roughnessFactor":0.5
			}
		},
		{
			"doubleSided":true,
			"name":"#FF2F2FFF",
			"pbrMetallicRoughness":{
				"baseColorFactor":[
					1,
					0.18431372940540314,
					0.18431372940540314,
					1
				],
				"metallicFactor":0.05000000074505806,
				"roughnessFactor":0.5
			}
		},
		{
			"doubleSided":true,
			"name":"#C5A78CFF",
			"pbrMetallicRoughness":{
				"baseColorFactor":[
					0.772549033164978,
					0.6549019813537598,
					0.5490196347236633,
					1
				],
				"metallicFactor":0.05000000074505806,
				"roughnessFactor":0.5
			}
		},
		{
			"doubleSided":true,
			"name":"#F6AE83FF",
			"pbrMetallicRoughness":{
				"baseColorFactor":[
					0.9647058844566345,
					0.6823529601097107,
					0.5137255191802979,
					1
				],
				"metallicFactor":0.05000000074505806,
				"roughnessFactor":0.5
			}
		},
		{
			"doubleSided":true,
			"name":"#AB3712FF",
			"pbrMetallicRoughness":{
				"baseColorFactor":[
					0.6705882549285889,
					0.21568627655506134,
					0.07058823853731155,
					1
				],
				"metallicFactor":0.05000000074505806,
				"roughnessFactor":0.5
			}
		},
		{
			"doubleSided":true,
			"name":"#E67A11FF",
			"pbrMetallicRoughness":{
				"baseColorFactor":[
					0.9019607901573181,
					0.47843137383461,
					0.06666667014360428,
					1
				],
				"metallicFactor":0.05000000074505806,
				"roughnessFactor":0.5
			}
		},
		{
			"doubleSided":true,
			"name":"#D9554BFF",
			"pbrMetallicRoughness":{
				"baseColorFactor":[
					0.8509804010391235,
					0.3333333432674408,
					0.29411765933036804,
					1
				],
				"metallicFactor":0.05000000074505806,
				"roughnessFactor":0.5
			}
		},
		{
			"doubleSided":true,
			"name":"#478F6AFF",
			"pbrMetallicRoughness":{
				"baseColorFactor":[
					0.27843138575553894,
					0.5607843399047852,
					0.4156862795352936,
					1
				],
				"metallicFactor":0.05000000074505806,
				"roughnessFactor":0.5
			}
		},
		{
			"doubleSided":true,
			"name":"#FFFFFFFF",
			"pbrMetallicRoughness":{
				"metallicFactor":0.05000000074505806,
				"roughnessFactor":0.5
			}
		}
	],
	"meshes":[
		{
			"name":"Mesh0.012",
			"primitives":[
				{
					"attributes":{
						"POSITION":0,
						"NORMAL":1
					},
					"indices":2,
					"material":0
				}
			]
		},
		{
			"name":"Mesh0.013",
			"primitives":[
				{
					"attributes":{
						"POSITION":3,
						"NORMAL":4
					},
					"indices":5,
					"material":1
				}
			]
		},
		{
			"name":"Mesh0.014",
			"primitives":[
				{
					"attributes":{
						"POSITION":6,
						"NORMAL":7
					},
					"indices":8,
					"material":2
				}
			]
		},
		{
			"name":"Mesh0.016",
			"primitives":[
				{
					"attributes":{
						"POSITION":9,
						"NORMAL":10
					},
					"indices":11,
					"material":3
				}
			]
		},
		{
			"name":"Mesh0.017",
			"primitives":[
				{
					"attributes":{
						"POSITION":12,
						"NORMAL":13
					},
					"indices":14,
					"material":4
				}
			]
		},
		{
			"name":"Mesh0.001",
			"primitives":[
				{
					"attributes":{
						"POSITION":15,
						"NORMAL":16
					},
					"indices":17,
					"material":4
				}
			]
		},
		{
			"name":"Mesh0.019",
			"primitives":[
				{
					"attributes":{
						"POSITION":18,
						"NORMAL":19
					},
					"indices":20,
					"material":5
				}
			]
		},
		{
			"name":"Mesh0.028",
			"primitives":[
				{
					"attributes":{
						"POSITION":21,
						"NORMAL":22
					},
					"indices":23,
					"material":6
				}
			]
		},
		{
			"name":"Mesh0.029",
			"primitives":[
				{
					"attributes":{
						"POSITION":24,
						"NORMAL":25
					},
					"indices":26,
					"material":7
				}
			]
		},
		{
			"name":"Mesh0.030",
			"primitives":[
				{
					"attributes":{
						"POSITION":27,
						"NORMAL":28
					},
					"indices":29,
					"material":8
				}
			]
		},
		{
			"name":"Mesh0.031",
			"primitives":[
				{
					"attributes":{
						"POSITION":30,
						"NORMAL":31
					},
					"indices":32,
					"material":9
				}
			]
		},
		{
			"name":"Mesh0.032",
			"primitives":[
				{
					"attributes":{
						"POSITION":33,
						"NORMAL":34
					},
					"indices":35,
					"material":10
				}
			]
		},
		{
			"name":"Mesh0.033",
			"primitives":[
				{
					"attributes":{
						"POSITION":36,
						"NORMAL":37
					},
					"indices":38,
					"material":11
				}
			]
		},
		{
			"name":"Mesh0.034",
			"primitives":[
				{
					"attributes":{
						"POSITION":39,
						"NORMAL":40
					},
					"indices":41,
					"material":12
				}
			]
		},
		{
			"name":"Mesh0.035",
			"primitives":[
				{
					"attributes":{
						"POSITION":42,
						"NORMAL":43
					},
					"indices":44,
					"material":13
				}
			]
		},
		{
			"name":"Mesh0.036",
			"primitives":[
				{
					"attributes":{
						"POSITION":45,
						"NORMAL":46
					},
					"indices":47,
					"material":14
				}
			]
		},
		{
			"name":"Mesh0.037",
			"primitives":[
				{
					"attributes":{
						"POSITION":48,
						"NORMAL":49
					},
					"indices":50,
					"material":15
				}
			]
		},
		{
			"name":"Mesh0.004",
			"primitives":[
				{
					"attributes":{
						"POSITION":51,
						"NORMAL":52
					},
					"indices":53,
					"material":16
				}
			]
		},
		{
			"name":"Mesh0.005",
			"primitives":[
				{
					"attributes":{
						"POSITION":54,
						"NORMAL":55
					},
					"indices":56,
					"material":17
				}
			]
		},
		{
			"name":"Mesh0.007",
			"primitives":[
				{
					"attributes":{
						"POSITION":57,
						"NORMAL":58
					},
					"indices":59,
					"material":18
				}
			]
		},
		{
			"name":"Mesh0",
			"primitives":[
				{
					"attributes":{
						"POSITION":60,
						"NORMAL":61
					},
					"indices":62,
					"material":18
				}
			]
		}
	],
	"accessors":[
		{
			"bufferView":0,
			"componentType":5126,
			"count":257423,
			"max":[
				492.12640380859375,
				215.12203979492188,
				43.59400177001953
			],
			"min":[
				235.7452392578125,
				-8.150197982788086,
				-552.3048706054688
			],
			"type":"VEC3"
		},
		{
			"bufferView":1,
			"componentType":5126,
			"count":257423,
			"type":"VEC3"
		},
		{
			"bufferView":2,
			"componentType":5125,
			"count":298761,
			"type":"SCALAR"
		},
		{
			"bufferView":3,
			"componentType":5126,
			"count":25484,
			"max":[
				510.24493408203125,
				21.884519577026367,
				-286.2554626464844
			],
			"min":[
				467.62921142578125,
				0.2845200002193451,
				-315.45526123046875
			],
			"type":"VEC3"
		},
		{
			"bufferView":4,
			"componentType":5126,
			"count":25484,
			"type":"VEC3"
		},
		{
			"bufferView":5,
			"componentType":5123,
			"count":30558,
			"type":"SCALAR"
		},
		{
			"bufferView":6,
			"componentType":5126,
			"count":15192,
			"max":[
				521.1023559570312,
				129.32737731933594,
				15.252899169921875
			],
			"min":[
				100.88632202148438,
				-2.150198459625244,
				-523.9638061523438
			],
			"type":"VEC3"
		},
		{
			"bufferView":7,
			"componentType":5126,
			"count":15192,
			"type":"VEC3"
		},
		{
			"bufferView":8,
			"componentType":5123,
			"count":21123,
			"type":"SCALAR"
		},
		{
			"bufferView":9,
			"componentType":5126,
			"count":89740,
			"max":[
				433.6560974121094,
				213.1999969482422,
				42.42250061035156
			],
			"min":[
				344.49163818359375,
				2.349801540374756,
				-551.1333618164062
			],
			"type":"VEC3"
		},
		{
			"bufferView":10,
			"componentType":5126,
			"count":89740,
			"type":"VEC3"
		},
		{
			"bufferView":11,
			"componentType":5125,
			"count":119496,
			"type":"SCALAR"
		},
		{
			"bufferView":12,
			"componentType":5126,
			"count":58110,
			"max":[
				523.6466064453125,
				124.17737579345703,
				-34.27666091918945
			],
			"min":[
				79.10143280029297,
				-5.432588577270508,
				-473.3735656738281
			],
			"type":"VEC3"
		},
		{
			"bufferView":13,
			"componentType":5126,
			"count":58110,
			"type":"VEC3"
		},
		{
			"bufferView":14,
			"componentType":5123,
			"count":71538,
			"type":"SCALAR"
		},
		{
			"bufferView":15,
			"componentType":5126,
			"count":147670,
			"max":[
				528.1049194335938,
				55.45111846923828,
				-76.89149475097656
			],
			"min":[
				379.81494140625,
				-5.453000068664551,
				-311.0674743652344
			],
			"type":"VEC3"
		},
		{
			"bufferView":16,
			"componentType":5126,
			"count":147670,
			"type":"VEC3"
		},
		{
			"bufferView":17,
			"componentType":5125,
			"count":175134,
			"type":"SCALAR"
		},
		{
			"bufferView":18,
			"componentType":5126,
			"count":1602317,
			"max":[
				523.7750244140625,
				194,
				-4.1998907129858765e-10
			],
			"min":[
				-4.455160140991211,
				-9.008999824523926,
				-507.6675720214844
			],
			"type":"VEC3"
		},
		{
			"bufferView":19,
			"componentType":5126,
			"count":1602317,
			"type":"VEC3"
		},
		{
			"bufferView":20,
			"componentType":5125,
			"count":2099949,
			"type":"SCALAR"
		},
		{
			"bufferView":21,
			"componentType":5126,
			"count":90582,
			"max":[
				543.0316162109375,
				133.82737731933594,
				-19.569580078125
			],
			"min":[
				86.13714599609375,
				-9.008999824523926,
				-488.08062744140625
			],
			"type":"VEC3"
		},
		{
			"bufferView":22,
			"componentType":5126,
			"count":90582,
			"type":"VEC3"
		},
		{
			"bufferView":23,
			"componentType":5125,
			"count":110553,
			"type":"SCALAR"
		},
		{
			"bufferView":24,
			"componentType":5126,
			"count":15987,
			"max":[
				407.1318359375,
				17.710519790649414,
				-310.56561279296875
			],
			"min":[
				403.9328308105469,
				14.510519981384277,
				-315.1656188964844
			],
			"type":"VEC3"
		},
		{
			"bufferView":25,
			"componentType":5126,
			"count":15987,
			"type":"VEC3"
		},
		{
			"bufferView":26,
			"componentType":5123,
			"count":16692,
			"type":"SCALAR"
		},
		{
			"bufferView":27,
			"componentType":5126,
			"count":18994,
			"max":[
				459.5691833496094,
				250.07492065429688,
				-143.76089477539062
			],
			"min":[
				420.33282470703125,
				114.93756103515625,
				-202.6554718017578
			],
			"type":"VEC3"
		},
		{
			"bufferView":28,
			"componentType":5126,
			"count":18994,
			"type":"VEC3"
		},
		{
			"bufferView":29,
			"componentType":5123,
			"count":19476,
			"type":"SCALAR"
		},
		{
			"bufferView":30,
			"componentType":5126,
			"count":17278,
			"max":[
				457.6404113769531,
				250.07492065429688,
				-148.81907653808594
			],
			"min":[
				425.13189697265625,
				114.93756103515625,
				-199.8640899658203
			],
			"type":"VEC3"
		},
		{
			"bufferView":31,
			"componentType":5126,
			"count":17278,
			"type":"VEC3"
		},
		{
			"bufferView":32,
			"componentType":5123,
			"count":17820,
			"type":"SCALAR"
		},
		{
			"bufferView":33,
			"componentType":5126,
			"count":29197,
			"max":[
				460.21575927734375,
				127.27432250976562,
				-38.47267532348633
			],
			"min":[
				89.1835708618164,
				1.927114725112915,
				-468.4754638671875
			],
			"type":"VEC3"
		},
		{
			"bufferView":34,
			"componentType":5126,
			"count":29197,
			"type":"VEC3"
		},
		{
			"bufferView":35,
			"componentType":5123,
			"count":36432,
			"type":"SCALAR"
		},
		{
			"bufferView":36,
			"componentType":5126,
			"count":520,
			"max":[
				454.8752746582031,
				114.6536636352539,
				-43.81314468383789
			],
			"min":[
				64.83771514892578,
				12.52351188659668,
				-451.3155822753906
			],
			"type":"VEC3"
		},
		{
			"bufferView":37,
			"componentType":5126,
			"count":520,
			"type":"VEC3"
		},
		{
			"bufferView":38,
			"componentType":5123,
			"count":612,
			"type":"SCALAR"
		},
		{
			"bufferView":39,
			"componentType":5126,
			"count":47736,
			"max":[
				489.8435363769531,
				127.57728576660156,
				-3.8481931686401367
			],
			"min":[
				98.25228118896484,
				-0.400107204914093,
				-504.8627014160156
			],
			"type":"VEC3"
		},
		{
			"bufferView":40,
			"componentType":5126,
			"count":47736,
			"type":"VEC3"
		},
		{
			"bufferView":41,
			"componentType":5123,
			"count":55377,
			"type":"SCALAR"
		},
		{
			"bufferView":42,
			"componentType":5126,
			"count":78873,
			"max":[
				498.811767578125,
				133.7273712158203,
				40.05830764770508
			],
			"min":[
				416.4308776855469,
				-6.550198554992676,
				-548.7691650390625
			],
			"type":"VEC3"
		},
		{
			"bufferView":43,
			"componentType":5126,
			"count":78873,
			"type":"VEC3"
		},
		{
			"bufferView":44,
			"componentType":5125,
			"count":82287,
			"type":"SCALAR"
		},
		{
			"bufferView":45,
			"componentType":5126,
			"count":2577,
			"max":[
				469.96240234375,
				111.5323257446289,
				20.709836959838867
			],
			"min":[
				466.3657531738281,
				15.644852638244629,
				-529.4207153320312
			],
			"type":"VEC3"
		},
		{
			"bufferView":46,
			"componentType":5126,
			"count":2577,
			"type":"VEC3"
		},
		{
			"bufferView":47,
			"componentType":5123,
			"count":3114,
			"type":"SCALAR"
		},
		{
			"bufferView":48,
			"componentType":5126,
			"count":660,
			"max":[
				498.0294189453125,
				121.56736755371094,
				-20.441450119018555
			],
			"min":[
				476.9306335449219,
				5.609808444976807,
				-488.2694396972656
			],
			"type":"VEC3"
		},
		{
			"bufferView":49,
			"componentType":5126,
			"count":660,
			"type":"VEC3"
		},
		{
			"bufferView":50,
			"componentType":5123,
			"count":810,
			"type":"SCALAR"
		},
		{
			"bufferView":51,
			"componentType":5126,
			"count":42349,
			"max":[
				339.191650390625,
				195.1999969482422,
				-3.675762176513672
			],
			"min":[
				0.5948399901390076,
				193.89999389648438,
				-504.01800537109375
			],
			"type":"VEC3"
		},
		{
			"bufferView":52,
			"componentType":5126,
			"count":42349,
			"type":"VEC3"
		},
		{
			"bufferView":53,
			"componentType":5123,
			"count":74880,
			"type":"SCALAR"
		},
		{
			"bufferView":54,
			"componentType":5126,
			"count":215962,
			"max":[
				336.24163818359375,
				182.99197387695312,
				-1.0049999952316284
			],
			"min":[
				3.544840097427368,
				0.00803186371922493,
				-506.65045166015625
			],
			"type":"VEC3"
		},
		{
			"bufferView":55,
			"componentType":5126,
			"count":215962,
			"type":"VEC3"
		},
		{
			"bufferView":56,
			"componentType":5125,
			"count":292800,
			"type":"SCALAR"
		},
		{
			"bufferView":57,
			"componentType":5126,
			"count":9208,
			"max":[
				459.1849060058594,
				117.01779174804688,
				-39.50351333618164
			],
			"min":[
				97.34906005859375,
				10.159380912780762,
				-455.51983642578125
			],
			"type":"VEC3"
		},
		{
			"bufferView":58,
			"componentType":5126,
			"count":9208,
			"type":"VEC3"
		},
		{
			"bufferView":59,
			"componentType":5123,
			"count":11772,
			"type":"SCALAR"
		},
		{
			"bufferView":60,
			"componentType":5126,
			"count":38770,
			"max":[
				413.0390930175781,
				39.334320068359375,
				-94.69699096679688
			],
			"min":[
				388.52374267578125,
				19.834320068359375,
				-284.1613464355469
			],
			"type":"VEC3"
		},
		{
			"bufferView":61,
			"componentType":5126,
			"count":38770,
			"type":"VEC3"
		},
		{
			"bufferView":62,
			"componentType":5123,
			"count":48972,
			"type":"SCALAR"
		}
	],
	"bufferViews":[
		{
			"buffer":0,
			"byteLength":3089076,
			"byteOffset":0,
			"target":34962
		},
		{
			"buffer":0,
			"byteLength":3089076,
			"byteOffset":3089076,
			"target":34962
		},
		{
			"buffer":0,
			"byteLength":1195044,
			"byteOffset":6178152,
			"target":34963
		},
		{
			"buffer":0,
			"byteLength":305808,
			"byteOffset":7373196,
			"target":34962
		},
		{
			"buffer":0,
			"byteLength":305808,
			"byteOffset":7679004,
			"target":34962
		},
		{
			"buffer":0,
			"byteLength":61116,
			"byteOffset":7984812,
			"target":34963
		},
		{
			"buffer":0,
			"byteLength":182304,
			"byteOffset":8045928,
			"target":34962
		},
		{
			"buffer":0,
			"byteLength":182304,
			"byteOffset":8228232,
			"target":34962
		},
		{
			"buffer":0,
			"byteLength":42246,
			"byteOffset":8410536,
			"target":34963
		},
		{
			"buffer":0,
			"byteLength":1076880,
			"byteOffset":8452784,
			"target":34962
		},
		{
			"buffer":0,
			"byteLength":1076880,
			"byteOffset":9529664,
			"target":34962
		},
		{
			"buffer":0,
			"byteLength":477984,
			"byteOffset":10606544,
			"target":34963
		},
		{
			"buffer":0,
			"byteLength":697320,
			"byteOffset":11084528,
			"target":34962
		},
		{
			"buffer":0,
			"byteLength":697320,
			"byteOffset":11781848,
			"target":34962
		},
		{
			"buffer":0,
			"byteLength":143076,
			"byteOffset":12479168,
			"target":34963
		},
		{
			"buffer":0,
			"byteLength":1772040,
			"byteOffset":12622244,
			"target":34962
		},
		{
			"buffer":0,
			"byteLength":1772040,
			"byteOffset":14394284,
			"target":34962
		},
		{
			"buffer":0,
			"byteLength":700536,
			"byteOffset":16166324,
			"target":34963
		},
		{
			"buffer":0,
			"byteLength":19227804,
			"byteOffset":16866860,
			"target":34962
		},
		{
			"buffer":0,
			"byteLength":19227804,
			"byteOffset":36094664,
			"target":34962
		},
		{
			"buffer":0,
			"byteLength":8399796,
			"byteOffset":55322468,
			"target":34963
		},
		{
			"buffer":0,
			"byteLength":1086984,
			"byteOffset":63722264,
			"target":34962
		},
		{
			"buffer":0,
			"byteLength":1086984,
			"byteOffset":64809248,
			"target":34962
		},
		{
			"buffer":0,
			"byteLength":442212,
			"byteOffset":65896232,
			"target":34963
		},
		{
			"buffer":0,
			"byteLength":191844,
			"byteOffset":66338444,
			"target":34962
		},
		{
			"buffer":0,
			"byteLength":191844,
			"byteOffset":66530288,
			"target":34962
		},
		{
			"buffer":0,
			"byteLength":33384,
			"byteOffset":66722132,
			"target":34963
		},
		{
			"buffer":0,
			"byteLength":227928,
			"byteOffset":66755516,
			"target":34962
		},
		{
			"buffer":0,
			"byteLength":227928,
			"byteOffset":66983444,
			"target":34962
		},
		{
			"buffer":0,
			"byteLength":38952,
			"byteOffset":67211372,
			"target":34963
		},
		{
			"buffer":0,
			"byteLength":207336,
			"byteOffset":67250324,
			"target":34962
		},
		{
			"buffer":0,
			"byteLength":207336,
			"byteOffset":67457660,
			"target":34962
		},
		{
			"buffer":0,
			"byteLength":35640,
			"byteOffset":67664996,
			"target":34963
		},
		{
			"buffer":0,
			"byteLength":350364,
			"byteOffset":67700636,
			"target":34962
		},
		{
			"buffer":0,
			"byteLength":350364,
			"byteOffset":68051000,
			"target":34962
		},
		{
			"buffer":0,
			"byteLength":72864,
			"byteOffset":68401364,
			"target":34963
		},
		{
			"buffer":0,
			"byteLength":6240,
			"byteOffset":68474228,
			"target":34962
		},
		{
			"buffer":0,
			"byteLength":6240,
			"byteOffset":68480468,
			"target":34962
		},
		{
			"buffer":0,
			"byteLength":1224,
			"byteOffset":68486708,
			"target":34963
		},
		{
			"buffer":0,
			"byteLength":572832,
			"byteOffset":68487932,
			"target":34962
		},
		{
			"buffer":0,
			"byteLength":572832,
			"byteOffset":69060764,
			"target":34962
		},
		{
			"buffer":0,
			"byteLength":110754,
			"byteOffset":69633596,
			"target":34963
		},
		{
			"buffer":0,
			"byteLength":946476,
			"byteOffset":69744352,
			"target":34962
		},
		{
			"buffer":0,
			"byteLength":946476,
			"byteOffset":70690828,
			"target":34962
		},
		{
			"buffer":0,
			"byteLength":329148,
			"byteOffset":71637304,
			"target":34963
		},
		{
			"buffer":0,
			"byteLength":30924,
			"byteOffset":71966452,
			"target":34962
		},
		{
			"buffer":0,
			"byteLength":30924,
			"byteOffset":71997376,
			"target":34962
		},
		{
			"buffer":0,
			"byteLength":6228,
			"byteOffset":72028300,
			"target":34963
		},
		{
			"buffer":0,
			"byteLength":7920,
			"byteOffset":72034528,
			"target":34962
		},
		{
			"buffer":0,
			"byteLength":7920,
			"byteOffset":72042448,
			"target":34962
		},
		{
			"buffer":0,
			"byteLength":1620,
			"byteOffset":72050368,
			"target":34963
		},
		{
			"buffer":0,
			"byteLength":508188,
			"byteOffset":72051988,
			"target":34962
		},
		{
			"buffer":0,
			"byteLength":508188,
			"byteOffset":72560176,
			"target":34962
		},
		{
			"buffer":0,
			"byteLength":149760,
			"byteOffset":73068364,
			"target":34963
		},
		{
			"buffer":0,
			"byteLength":2591544,
			"byteOffset":73218124,
			"target":34962
		},
		{
			"buffer":0,
			"byteLength":2591544,
			"byteOffset":75809668,
			"target":34962
		},
		{
			"buffer":0,
			"byteLength":1171200,
			"byteOffset":78401212,
			"target":34963
		},
		{
			"buffer":0,
			"byteLength":110496,
			"byteOffset":79572412,
			"target":34962
		},
		{
			"buffer":0,
			"byteLength":110496,
			"byteOffset":79682908,
			"target":34962
		},
		{
			"buffer":0,
			"byteLength":23544,
			"byteOffset":79793404,
			"target":34963
		},
		{
			"buffer":0,
			"byteLength":465240,
			"byteOffset":79816948,
			"target":34962
		},
		{
			"buffer":0,
			"byteLength":465240,
			"byteOffset":80282188,
			"target":34962
		},
		{
			"buffer":0,
			"byteLength":97944,
			"byteOffset":80747428,
			"target":34963
		}
	],
	"buffers":[
		{
			"byteLength":80845372,
			"uri":"accumulator.bin"
		}
	]
}
