{
	"asset":{
		"generator":"Khronos glTF Blender I/O v4.0.44",
		"version":"2.0"
	},
	"scene":0,
	"scenes":[
		{
			"name":"Scene",
			"nodes":[
				24
			]
		}
	],
	"nodes":[
		{
			"mesh":0,
			"name":"Mesh",
			"rotation":[
				-0.70710688829422,
				0,
				0,
				0.7071066498756409
			],
			"translation":[
				5.9079378843307495e-05,
				0,
				-3.2782554626464844e-06
			]
		},
		{
			"children":[
				0
			],
			"name":"Node_1",
			"translation":[
				5.9079378843307495e-05,
				0,
				-3.2782554626464844e-06
			]
		},
		{
			"mesh":1,
			"name":"Mesh.005",
			"rotation":[
				-0.70710688829422,
				0,
				0,
				0.7071066498756409
			],
			"translation":[
				5.9079378843307495e-05,
				0,
				-3.2782554626464844e-06
			]
		},
		{
			"children":[
				2
			],
			"name":"Node_11",
			"translation":[
				5.9079378843307495e-05,
				0,
				-3.2782554626464844e-06
			]
		},
		{
			"mesh":2,
			"name":"Mesh.006",
			"rotation":[
				-0.70710688829422,
				0,
				0,
				0.7071066498756409
			],
			"translation":[
				5.9079378843307495e-05,
				0,
				-3.2782554626464844e-06
			]
		},
		{
			"children":[
				4
			],
			"name":"Node_13",
			"translation":[
				5.9079378843307495e-05,
				0,
				-3.2782554626464844e-06
			]
		},
		{
			"mesh":3,
			"name":"Mesh.007",
			"rotation":[
				-0.70710688829422,
				0,
				0,
				0.7071066498756409
			],
			"translation":[
				5.9079378843307495e-05,
				0,
				-3.2782554626464844e-06
			]
		},
		{
			"children":[
				6
			],
			"name":"Node_15",
			"translation":[
				5.9079378843307495e-05,
				0,
				-3.2782554626464844e-06
			]
		},
		{
			"mesh":4,
			"name":"Mesh.008",
			"rotation":[
				-0.70710688829422,
				0,
				0,
				0.7071066498756409
			],
			"translation":[
				5.9079378843307495e-05,
				0,
				-3.2782554626464844e-06
			]
		},
		{
			"children":[
				8
			],
			"name":"Node_17",
			"translation":[
				5.9079378843307495e-05,
				0,
				-3.2782554626464844e-06
			]
		},
		{
			"mesh":5,
			"name":"Mesh.009",
			"rotation":[
				-0.70710688829422,
				0,
				0,
				0.7071066498756409
			],
			"translation":[
				5.9079378843307495e-05,
				0,
				-3.2782554626464844e-06
			]
		},
		{
			"children":[
				10
			],
			"name":"Node_19",
			"translation":[
				5.9079378843307495e-05,
				0,
				-3.2782554626464844e-06
			]
		},
		{
			"mesh":6,
			"name":"Mesh.010",
			"rotation":[
				-0.70710688829422,
				0,
				0,
				0.7071066498756409
			],
			"translation":[
				5.9079378843307495e-05,
				0,
				-3.2782554626464844e-06
			]
		},
		{
			"children":[
				12
			],
			"name":"Node_21",
			"translation":[
				5.9079378843307495e-05,
				0,
				-3.2782554626464844e-06
			]
		},
		{
			"mesh":7,
			"name":"Mesh.011",
			"rotation":[
				-0.70710688829422,
				0,
				0,
				0.7071066498756409
			],
			"translation":[
				5.9079378843307495e-05,
				0,
				-3.2782554626464844e-06
			]
		},
		{
			"children":[
				14
			],
			"name":"Node_23",
			"translation":[
				5.9079378843307495e-05,
				0,
				-3.2782554626464844e-06
			]
		},
		{
			"mesh":8,
			"name":"Mesh.001",
			"rotation":[
				-0.70710688829422,
				0,
				0,
				0.7071066498756409
			],
			"translation":[
				5.9079378843307495e-05,
				0,
				-3.2782554626464844e-06
			]
		},
		{
			"children":[
				16
			],
			"name":"Node_3",
			"translation":[
				5.9079378843307495e-05,
				0,
				-3.2782554626464844e-06
			]
		},
		{
			"mesh":9,
			"name":"Mesh.002",
			"rotation":[
				-0.70710688829422,
				0,
				0,
				0.7071066498756409
			],
			"translation":[
				5.9079378843307495e-05,
				0,
				-3.2782554626464844e-06
			]
		},
		{
			"children":[
				18
			],
			"name":"Node_5",
			"translation":[
				5.9079378843307495e-05,
				0,
				-3.2782554626464844e-06
			]
		},
		{
			"mesh":10,
			"name":"Mesh.003",
			"rotation":[
				-0.70710688829422,
				0,
				0,
				0.7071066498756409
			],
			"translation":[
				5.9079378843307495e-05,
				0,
				-3.2782554626464844e-06
			]
		},
		{
			"children":[
				20
			],
			"name":"Node_7",
			"translation":[
				5.9079378843307495e-05,
				0,
				-3.2782554626464844e-06
			]
		},
		{
			"mesh":11,
			"name":"Mesh.004",
			"rotation":[
				-0.70710688829422,
				0,
				0,
				0.7071066498756409
			],
			"translation":[
				5.9079378843307495e-05,
				0,
				-3.2782554626464844e-06
			]
		},
		{
			"children":[
				22
			],
			"name":"Node_9",
			"translation":[
				5.9079378843307495e-05,
				0,
				-3.2782554626464844e-06
			]
		},
		{
			"children":[
				1,
				3,
				5,
				7,
				9,
				11,
				13,
				15,
				17,
				19,
				21,
				23
			],
			"name":"Node_0",
			"rotation":[
				0,
				1,
				0,
				0.00010001000191550702
			],
			"scale":[
				0.0010000000474974513,
				0.0010000000474974513,
				0.0010000000474974513
			],
			"translation":[
				1.149999976158142,
				0.019999999552965164,
				-0.2199999988079071
			]
		}
	],
	"materials":[
		{
			"doubleSided":true,
			"name":"Material_0",
			"pbrMetallicRoughness":{
				"baseColorFactor":[
					0.5921568870544434,
					0.6666666865348816,
					0.6823529601097107,
					1
				],
				"metallicFactor":0
			}
		},
		{
			"doubleSided":true,
			"name":"Material_2",
			"pbrMetallicRoughness":{
				"baseColorFactor":[
					0.5921568870544434,
					0.6666666865348816,
					0.6823529601097107,
					1
				],
				"metallicFactor":0
			}
		},
		{
			"doubleSided":true,
			"name":"Material_1",
			"pbrMetallicRoughness":{
				"baseColorFactor":[
					0.501960813999176,
					0.6313725709915161,
					0.7058823704719543,
					1
				],
				"metallicFactor":0
			}
		}
	],
	"meshes":[
		{
			"name":"Mesh_0",
			"primitives":[
				{
					"attributes":{
						"POSITION":0,
						"NORMAL":1
					},
					"indices":2,
					"material":0
				}
			]
		},
		{
			"name":"Mesh_5",
			"primitives":[
				{
					"attributes":{
						"POSITION":3,
						"NORMAL":4
					},
					"indices":5,
					"material":0
				}
			]
		},
		{
			"name":"Mesh_6",
			"primitives":[
				{
					"attributes":{
						"POSITION":6,
						"NORMAL":7
					},
					"indices":8,
					"material":0
				}
			]
		},
		{
			"name":"Mesh_7",
			"primitives":[
				{
					"attributes":{
						"POSITION":9,
						"NORMAL":10
					},
					"indices":11,
					"material":0
				}
			]
		},
		{
			"name":"Mesh_8",
			"primitives":[
				{
					"attributes":{
						"POSITION":12,
						"NORMAL":13
					},
					"indices":14,
					"material":1
				}
			]
		},
		{
			"name":"Mesh_9",
			"primitives":[
				{
					"attributes":{
						"POSITION":15,
						"NORMAL":16
					},
					"indices":17,
					"material":0
				}
			]
		},
		{
			"name":"Mesh_10",
			"primitives":[
				{
					"attributes":{
						"POSITION":18,
						"NORMAL":19
					},
					"indices":20,
					"material":1
				}
			]
		},
		{
			"name":"Mesh_11",
			"primitives":[
				{
					"attributes":{
						"POSITION":21,
						"NORMAL":22
					},
					"indices":23,
					"material":1
				}
			]
		},
		{
			"name":"Mesh_1",
			"primitives":[
				{
					"attributes":{
						"POSITION":24,
						"NORMAL":25
					},
					"indices":26,
					"material":2
				}
			]
		},
		{
			"name":"Mesh_2",
			"primitives":[
				{
					"attributes":{
						"POSITION":27,
						"NORMAL":28
					},
					"indices":29,
					"material":0
				}
			]
		},
		{
			"name":"Mesh_3",
			"primitives":[
				{
					"attributes":{
						"POSITION":30,
						"NORMAL":31
					},
					"indices":5,
					"material":0
				}
			]
		},
		{
			"name":"Mesh_4",
			"primitives":[
				{
					"attributes":{
						"POSITION":32,
						"NORMAL":33
					},
					"indices":34,
					"material":0
				}
			]
		}
	],
	"accessors":[
		{
			"bufferView":0,
			"componentType":5126,
			"count":277,
			"max":[
				1741.234130859375,
				244.82186889648438,
				381
			],
			"min":[
				1718.6280517578125,
				-244.82186889648438,
				84.253173828125
			],
			"type":"VEC3"
		},
		{
			"bufferView":1,
			"componentType":5126,
			"count":277,
			"type":"VEC3"
		},
		{
			"bufferView":2,
			"componentType":5123,
			"count":540,
			"type":"SCALAR"
		},
		{
			"bufferView":3,
			"componentType":5126,
			"count":361,
			"max":[
				1270.4219970703125,
				-246.9925537109375,
				644.6546020507812
			],
			"min":[
				1245.0677490234375,
				-272.3696594238281,
				585.7265625
			],
			"type":"VEC3"
		},
		{
			"bufferView":4,
			"componentType":5126,
			"count":361,
			"type":"VEC3"
		},
		{
			"bufferView":5,
			"componentType":5123,
			"count":888,
			"type":"SCALAR"
		},
		{
			"bufferView":6,
			"componentType":5126,
			"count":481,
			"max":[
				1268.732177734375,
				-220.56703186035156,
				993.8197631835938
			],
			"min":[
				1017.8231201171875,
				-272.3169250488281,
				579.3790893554688
			],
			"type":"VEC3"
		},
		{
			"bufferView":7,
			"componentType":5126,
			"count":481,
			"type":"VEC3"
		},
		{
			"bufferView":8,
			"componentType":5123,
			"count":1104,
			"type":"SCALAR"
		},
		{
			"bufferView":9,
			"componentType":5126,
			"count":467,
			"max":[
				1268.732177734375,
				272.3169250488281,
				993.8197631835938
			],
			"min":[
				1017.8231201171875,
				220.56643676757812,
				579.3790893554688
			],
			"type":"VEC3"
		},
		{
			"bufferView":10,
			"componentType":5126,
			"count":467,
			"type":"VEC3"
		},
		{
			"bufferView":11,
			"componentType":5123,
			"count":1104,
			"type":"SCALAR"
		},
		{
			"bufferView":12,
			"componentType":5126,
			"count":1182,
			"max":[
				-291.195556640625,
				229.907958984375,
				609.4260864257812
			],
			"min":[
				-660.401123046875,
				-229.907958984375,
				418.8531494140625
			],
			"type":"VEC3"
		},
		{
			"bufferView":13,
			"componentType":5126,
			"count":1182,
			"type":"VEC3"
		},
		{
			"bufferView":14,
			"componentType":5123,
			"count":4224,
			"type":"SCALAR"
		},
		{
			"bufferView":15,
			"componentType":5126,
			"count":4051,
			"max":[
				993.0130004882812,
				357.00048828125,
				635
			],
			"min":[
				111.34347534179688,
				-357.00048828125,
				482.6000061035156
			],
			"type":"VEC3"
		},
		{
			"bufferView":16,
			"componentType":5126,
			"count":4051,
			"type":"VEC3"
		},
		{
			"bufferView":17,
			"componentType":5123,
			"count":15234,
			"type":"SCALAR"
		},
		{
			"bufferView":18,
			"componentType":5126,
			"count":8109,
			"max":[
				-657.6578979492188,
				186.68405151367188,
				486.54779052734375
			],
			"min":[
				-900.87060546875,
				-186.68405151367188,
				141.10780334472656
			],
			"type":"VEC3"
		},
		{
			"bufferView":19,
			"componentType":5126,
			"count":8109,
			"type":"VEC3"
		},
		{
			"bufferView":20,
			"componentType":5123,
			"count":31704,
			"type":"SCALAR"
		},
		{
			"bufferView":21,
			"componentType":5126,
			"count":58995,
			"max":[
				1718.6280517578125,
				357.90118408203125,
				630.7314453125
			],
			"min":[
				-660.4000244140625,
				-357.90118408203125,
				32.35960006713867
			],
			"type":"VEC3"
		},
		{
			"bufferView":22,
			"componentType":5126,
			"count":58995,
			"type":"VEC3"
		},
		{
			"bufferView":23,
			"componentType":5123,
			"count":213261,
			"type":"SCALAR"
		},
		{
			"bufferView":24,
			"componentType":5126,
			"count":19598,
			"max":[
				119.15502166748047,
				228.60023498535156,
				646.2909545898438
			],
			"min":[
				-302.8457336425781,
				-228.60023498535156,
				465.7260437011719
			],
			"type":"VEC3"
		},
		{
			"bufferView":25,
			"componentType":5126,
			"count":19598,
			"type":"VEC3"
		},
		{
			"bufferView":26,
			"componentType":5123,
			"count":74769,
			"type":"SCALAR"
		},
		{
			"bufferView":27,
			"componentType":5126,
			"count":1663,
			"max":[
				-325.6293029785156,
				88.9000015258789,
				602.192138671875
			],
			"min":[
				-568.5302124023438,
				-88.9000015258789,
				525.401611328125
			],
			"type":"VEC3"
		},
		{
			"bufferView":28,
			"componentType":5126,
			"count":1663,
			"type":"VEC3"
		},
		{
			"bufferView":29,
			"componentType":5123,
			"count":5352,
			"type":"SCALAR"
		},
		{
			"bufferView":30,
			"componentType":5126,
			"count":361,
			"max":[
				1270.4219970703125,
				272.3696594238281,
				644.6546020507812
			],
			"min":[
				1245.0677490234375,
				246.9925537109375,
				585.7265625
			],
			"type":"VEC3"
		},
		{
			"bufferView":31,
			"componentType":5126,
			"count":361,
			"type":"VEC3"
		},
		{
			"bufferView":32,
			"componentType":5126,
			"count":3170,
			"max":[
				1038.8599853515625,
				323.84649658203125,
				1144.361572265625
			],
			"min":[
				1013.4600219726562,
				-323.84649658203125,
				32.256324768066406
			],
			"type":"VEC3"
		},
		{
			"bufferView":33,
			"componentType":5126,
			"count":3170,
			"type":"VEC3"
		},
		{
			"bufferView":34,
			"componentType":5123,
			"count":13548,
			"type":"SCALAR"
		}
	],
	"bufferViews":[
		{
			"buffer":0,
			"byteLength":3324,
			"byteOffset":0,
			"target":34962
		},
		{
			"buffer":0,
			"byteLength":3324,
			"byteOffset":3324,
			"target":34962
		},
		{
			"buffer":0,
			"byteLength":1080,
			"byteOffset":6648,
			"target":34963
		},
		{
			"buffer":0,
			"byteLength":4332,
			"byteOffset":7728,
			"target":34962
		},
		{
			"buffer":0,
			"byteLength":4332,
			"byteOffset":12060,
			"target":34962
		},
		{
			"buffer":0,
			"byteLength":1776,
			"byteOffset":16392,
			"target":34963
		},
		{
			"buffer":0,
			"byteLength":5772,
			"byteOffset":18168,
			"target":34962
		},
		{
			"buffer":0,
			"byteLength":5772,
			"byteOffset":23940,
			"target":34962
		},
		{
			"buffer":0,
			"byteLength":2208,
			"byteOffset":29712,
			"target":34963
		},
		{
			"buffer":0,
			"byteLength":5604,
			"byteOffset":31920,
			"target":34962
		},
		{
			"buffer":0,
			"byteLength":5604,
			"byteOffset":37524,
			"target":34962
		},
		{
			"buffer":0,
			"byteLength":2208,
			"byteOffset":43128,
			"target":34963
		},
		{
			"buffer":0,
			"byteLength":14184,
			"byteOffset":45336,
			"target":34962
		},
		{
			"buffer":0,
			"byteLength":14184,
			"byteOffset":59520,
			"target":34962
		},
		{
			"buffer":0,
			"byteLength":8448,
			"byteOffset":73704,
			"target":34963
		},
		{
			"buffer":0,
			"byteLength":48612,
			"byteOffset":82152,
			"target":34962
		},
		{
			"buffer":0,
			"byteLength":48612,
			"byteOffset":130764,
			"target":34962
		},
		{
			"buffer":0,
			"byteLength":30468,
			"byteOffset":179376,
			"target":34963
		},
		{
			"buffer":0,
			"byteLength":97308,
			"byteOffset":209844,
			"target":34962
		},
		{
			"buffer":0,
			"byteLength":97308,
			"byteOffset":307152,
			"target":34962
		},
		{
			"buffer":0,
			"byteLength":63408,
			"byteOffset":404460,
			"target":34963
		},
		{
			"buffer":0,
			"byteLength":707940,
			"byteOffset":467868,
			"target":34962
		},
		{
			"buffer":0,
			"byteLength":707940,
			"byteOffset":1175808,
			"target":34962
		},
		{
			"buffer":0,
			"byteLength":426522,
			"byteOffset":1883748,
			"target":34963
		},
		{
			"buffer":0,
			"byteLength":235176,
			"byteOffset":2310272,
			"target":34962
		},
		{
			"buffer":0,
			"byteLength":235176,
			"byteOffset":2545448,
			"target":34962
		},
		{
			"buffer":0,
			"byteLength":149538,
			"byteOffset":2780624,
			"target":34963
		},
		{
			"buffer":0,
			"byteLength":19956,
			"byteOffset":2930164,
			"target":34962
		},
		{
			"buffer":0,
			"byteLength":19956,
			"byteOffset":2950120,
			"target":34962
		},
		{
			"buffer":0,
			"byteLength":10704,
			"byteOffset":2970076,
			"target":34963
		},
		{
			"buffer":0,
			"byteLength":4332,
			"byteOffset":2980780,
			"target":34962
		},
		{
			"buffer":0,
			"byteLength":4332,
			"byteOffset":2985112,
			"target":34962
		},
		{
			"buffer":0,
			"byteLength":38040,
			"byteOffset":2989444,
			"target":34962
		},
		{
			"buffer":0,
			"byteLength":38040,
			"byteOffset":3027484,
			"target":34962
		},
		{
			"buffer":0,
			"byteLength":27096,
			"byteOffset":3065524,
			"target":34963
		}
	],
	"buffers":[
		{
			"byteLength":3092620,
			"uri":"chassis.bin"
		}
	]
}
