{"scene":0,"asset":{"generator":"ImageToStl.com","version":"2.0"},"scenes":[{"name":"Scene","nodes":[0]}],"nodes":[{"name":"Node0","children":[1]},{"name":"Node1","mesh":0,"children":[2,3,4,5,6,7,8,9,10,11,12,13,14,15]},{"name":"Node2","mesh":1},{"name":"Node3","mesh":2},{"name":"Node4","mesh":3},{"name":"Node5","mesh":4},{"name":"Node6","mesh":5},{"name":"Node7","mesh":6},{"name":"Node8","mesh":7},{"name":"Node9","mesh":8},{"name":"Node10","mesh":9},{"name":"Node11","mesh":10},{"name":"Node12","mesh":11},{"name":"Node13","mesh":12},{"name":"Node14","mesh":13},{"name":"Node15","mesh":14}],"materials":[{"name":"#97AAAEFF","pbrMetallicRoughness":{"baseColorFactor":[0.5921569,0.6666667,0.68235296,1.0],"metallicFactor":0.05,"roughnessFactor":0.5},"doubleSided":true},{"name":"#DCEEECFF","pbrMetallicRoughness":{"baseColorFactor":[0.8627451,0.93333334,0.9254902,1.0],"metallicFactor":0.05,"roughnessFactor":0.5},"doubleSided":true},{"name":"#D7FFC6FF","pbrMetallicRoughness":{"baseColorFactor":[0.84313726,1.0,0.7764706,1.0],"metallicFactor":0.05,"roughnessFactor":0.5},"doubleSided":true},{"name":"#CCCCCCFF","pbrMetallicRoughness":{"baseColorFactor":[0.8,0.8,0.8,1.0],"metallicFactor":0.05,"roughnessFactor":0.5},"doubleSided":true},{"name":"#4B4B4BFF","pbrMetallicRoughness":{"baseColorFactor":[0.29411766,0.29411766,0.29411766,1.0],"metallicFactor":0.05,"roughnessFactor":0.5},"doubleSided":true},{"name":"#996633FF","pbrMetallicRoughness":{"baseColorFactor":[0.6,0.4,0.2,1.0],"metallicFactor":0.05,"roughnessFactor":0.5},"doubleSided":true},{"name":"#666666FF","pbrMetallicRoughness":{"baseColorFactor":[0.4,0.4,0.4,1.0],"metallicFactor":0.05,"roughnessFactor":0.5},"doubleSided":true},{"name":"#413731FF","pbrMetallicRoughness":{"baseColorFactor":[0.25490198,0.21568628,0.19215687,1.0],"metallicFactor":0.05,"roughnessFactor":0.5},"doubleSided":true},{"name":"#B6CEC2FF","pbrMetallicRoughness":{"baseColorFactor":[0.7137255,0.80784315,0.7607843,1.0],"metallicFactor":0.05,"roughnessFactor":0.5},"doubleSided":true},{"name":"#333333FF","pbrMetallicRoughness":{"baseColorFactor":[0.2,0.2,0.2,1.0],"metallicFactor":0.05,"roughnessFactor":0.5},"doubleSided":true},{"name":"#FF2F2FFF","pbrMetallicRoughness":{"baseColorFactor":[1.0,0.18431373,0.18431373,1.0],"metallicFactor":0.05,"roughnessFactor":0.5},"doubleSided":true},{"name":"#FF0000FF","pbrMetallicRoughness":{"baseColorFactor":[1.0,0.0,0.0,1.0],"metallicFactor":0.05,"roughnessFactor":0.5},"doubleSided":true},{"name":"#FFFFFFFF","pbrMetallicRoughness":{"baseColorFactor":[1.0,1.0,1.0,1.0],"metallicFactor":0.05,"roughnessFactor":0.5},"doubleSided":true},{"name":"#C5A78CFF","pbrMetallicRoughness":{"baseColorFactor":[0.77254903,0.654902,0.54901963,1.0],"metallicFactor":0.05,"roughnessFactor":0.5},"doubleSided":true}],"meshes":[{"name":"Mesh0","primitives":[{"indices":1,"material":0,"attributes":{"POSITION":0}}]},{"name":"Mesh0","primitives":[{"indices":3,"material":0,"attributes":{"POSITION":2}}]},{"name":"Mesh0","primitives":[{"indices":5,"material":1,"attributes":{"POSITION":4}}]},{"name":"Mesh0","primitives":[{"indices":7,"material":2,"attributes":{"POSITION":6}}]},{"name":"Mesh0","primitives":[{"indices":9,"material":3,"attributes":{"POSITION":8}}]},{"name":"Mesh0","primitives":[{"indices":11,"material":4,"attributes":{"POSITION":10}}]},{"name":"Mesh0","primitives":[{"indices":13,"material":5,"attributes":{"POSITION":12}}]},{"name":"Mesh0","primitives":[{"indices":15,"material":6,"attributes":{"POSITION":14}}]},{"name":"Mesh0","primitives":[{"indices":17,"material":7,"attributes":{"POSITION":16}}]},{"name":"Mesh0","primitives":[{"indices":19,"material":8,"attributes":{"POSITION":18}}]},{"name":"Mesh0","primitives":[{"indices":21,"material":9,"attributes":{"POSITION":20}}]},{"name":"Mesh0","primitives":[{"indices":23,"material":10,"attributes":{"POSITION":22}}]},{"name":"Mesh0","primitives":[{"indices":25,"material":11,"attributes":{"POSITION":24}}]},{"name":"Mesh0","primitives":[{"indices":27,"material":12,"attributes":{"POSITION":26}}]},{"name":"Mesh0","primitives":[{"indices":29,"material":13,"attributes":{"POSITION":28}}]}],"accessors":[{"bufferView":0,"componentType":5126,"count":16252,"type":"VEC3","min":[-63.75925,-19.120468,-12.184],"max":[541.35376,558.6991,231.35628]},{"bufferView":1,"componentType":5123,"count":97440,"type":"SCALAR"},{"bufferView":2,"componentType":5126,"count":9333,"type":"VEC3","min":[308.1887,-6.355457,-9.009],"max":[465.04218,531.0131,228.098]},{"bufferView":3,"componentType":5123,"count":55566,"type":"SCALAR"},{"bufferView":4,"componentType":5126,"count":23894,"type":"VEC3","min":[415.8156,23.82065,66.32738],"max":[467.40408,75.40912,133.82738]},{"bufferView":5,"componentType":5123,"count":134856,"type":"SCALAR"},{"bufferView":6,"componentType":5126,"count":5344,"type":"VEC3","min":[418.85617,42.742863,74.904686],"max":[447.7798,64.54394,127.27717]},{"bufferView":7,"componentType":5123,"count":28716,"type":"SCALAR"},{"bufferView":8,"componentType":5126,"count":4098,"type":"VEC3","min":[408.7799,38.54477,75.97991],"max":[452.67996,82.444824,124.177376]},{"bufferView":9,"componentType":5123,"count":19398,"type":"SCALAR"},{"bufferView":10,"componentType":5126,"count":29666,"type":"VEC3","min":[423.6827,33.088776,68.277374],"max":[458.13596,67.54203,131.87738]},{"bufferView":11,"componentType":5123,"count":169938,"type":"SCALAR"},{"bufferView":12,"componentType":5126,"count":10838,"type":"VEC3","min":[407.3881,66.55732,79.48737],"max":[418.0633,77.23251,120.66737]},{"bufferView":13,"componentType":5123,"count":62004,"type":"SCALAR"},{"bufferView":14,"componentType":5126,"count":2042,"type":"VEC3","min":[417.37125,50.660378,76.177376],"max":[431.65482,73.85348,123.97737]},{"bufferView":15,"componentType":5123,"count":10752,"type":"SCALAR"},{"bufferView":16,"componentType":5126,"count":2903,"type":"VEC3","min":[405.8454,37.68522,71.914925],"max":[453.53952,85.37932,128.23982]},{"bufferView":17,"componentType":5123,"count":14079,"type":"SCALAR"},{"bufferView":18,"componentType":5126,"count":3780,"type":"VEC3","min":[411.29108,23.967096,68.07738],"max":[467.25763,80.1458,132.07738]},{"bufferView":19,"componentType":5123,"count":14322,"type":"SCALAR"},{"bufferView":20,"componentType":5126,"count":244,"type":"VEC3","min":[394.47464,48.081253,83.053665],"max":[430.622,84.118004,84.65366]},{"bufferView":21,"componentType":5123,"count":1128,"type":"SCALAR"},{"bufferView":22,"componentType":5126,"count":244,"type":"VEC3","min":[394.47464,48.081253,85.50108],"max":[430.622,84.118004,87.10108]},{"bufferView":23,"componentType":5123,"count":1128,"type":"SCALAR"},{"bufferView":24,"componentType":5126,"count":172,"type":"VEC3","min":[430.5648,71.91493,84.36392],"max":[432.13696,73.48711,115.708954]},{"bufferView":25,"componentType":5123,"count":837,"type":"SCALAR"},{"bufferView":26,"componentType":5126,"count":344,"type":"VEC3","min":[427.02753,43.77162,83.136955],"max":[434.82623,51.680634,87.01417]},{"bufferView":27,"componentType":5123,"count":1536,"type":"SCALAR"},{"bufferView":28,"componentType":5126,"count":1234,"type":"VEC3","min":[427.9277,45.4397,74.32154],"max":[445.67862,63.2961,127.277374]},{"bufferView":29,"componentType":5123,"count":6054,"type":"SCALAR"}],"bufferViews":[{"target":34962,"buffer":0,"byteLength":195024,"byteOffset":0},{"target":34963,"buffer":0,"byteLength":194880,"byteOffset":195024},{"target":34962,"buffer":0,"byteLength":111996,"byteOffset":389904},{"target":34963,"buffer":0,"byteLength":111132,"byteOffset":501900},{"target":34962,"buffer":0,"byteLength":286728,"byteOffset":613032},{"target":34963,"buffer":0,"byteLength":269712,"byteOffset":899760},{"target":34962,"buffer":0,"byteLength":64128,"byteOffset":1169472},{"target":34963,"buffer":0,"byteLength":57432,"byteOffset":1233600},{"target":34962,"buffer":0,"byteLength":49176,"byteOffset":1291032},{"target":34963,"buffer":0,"byteLength":38796,"byteOffset":1340208},{"target":34962,"buffer":0,"byteLength":355992,"byteOffset":1379004},{"target":34963,"buffer":0,"byteLength":339876,"byteOffset":1734996},{"target":34962,"buffer":0,"byteLength":130056,"byteOffset":2074872},{"target":34963,"buffer":0,"byteLength":124008,"byteOffset":2204928},{"target":34962,"buffer":0,"byteLength":24504,"byteOffset":2328936},{"target":34963,"buffer":0,"byteLength":21504,"byteOffset":2353440},{"target":34962,"buffer":0,"byteLength":34836,"byteOffset":2374944},{"target":34963,"buffer":0,"byteLength":28158,"byteOffset":2409780},{"target":34962,"buffer":0,"byteLength":45360,"byteOffset":2437940},{"target":34963,"buffer":0,"byteLength":28644,"byteOffset":2483300},{"target":34962,"buffer":0,"byteLength":2928,"byteOffset":2511944},{"target":34963,"buffer":0,"byteLength":2256,"byteOffset":2514872},{"target":34962,"buffer":0,"byteLength":2928,"byteOffset":2517128},{"target":34963,"buffer":0,"byteLength":2256,"byteOffset":2520056},{"target":34962,"buffer":0,"byteLength":2064,"byteOffset":2522312},{"target":34963,"buffer":0,"byteLength":1674,"byteOffset":2524376},{"target":34962,"buffer":0,"byteLength":4128,"byteOffset":2526052},{"target":34963,"buffer":0,"byteLength":3072,"byteOffset":2530180},{"target":34962,"buffer":0,"byteLength":14808,"byteOffset":2533252},{"target":34963,"buffer":0,"byteLength":12108,"byteOffset":2548060}],"buffers":[{"byteLength":2560168,"uri":"data:application/octet-stream;base64,"}]}